<svg width="41" height="41" viewBox="0 0 41 41" fill="none" xmlns="http://www.w3.org/2000/svg">
<path d="M20.5 0C9.184 0 0 9.184 0 20.5C0 31.816 9.184 41 20.5 41C31.816 41 41 31.816 41 20.5C41 9.184 31.816 0 20.5 0ZM27.9005 12.997C30.094 12.997 31.857 14.76 31.857 16.9535C31.857 19.147 30.094 20.91 27.9005 20.91C25.707 20.91 23.944 19.147 23.944 16.9535C23.9235 14.76 25.707 12.997 27.9005 12.997ZM15.6005 9.758C18.2655 9.758 20.4385 11.931 20.4385 14.596C20.4385 17.261 18.2655 19.434 15.6005 19.434C12.9355 19.434 10.7625 17.261 10.7625 14.596C10.7625 11.9105 12.915 9.758 15.6005 9.758ZM15.6005 28.4745V36.162C10.6805 34.6245 6.7855 30.832 5.0635 25.994C7.216 23.698 12.587 22.5295 15.6005 22.5295C16.687 22.5295 18.0605 22.6935 19.4955 22.9805C16.1335 24.764 15.6005 27.1215 15.6005 28.4745ZM20.5 36.9C19.9465 36.9 19.4135 36.8795 18.8805 36.818V28.4745C18.8805 25.5635 24.9075 24.108 27.9005 24.108C30.094 24.108 33.8865 24.9075 35.7725 26.4655C33.374 32.554 27.4495 36.9 20.5 36.9Z" fill="white"/>
</svg>
